<svg xmlns="http://www.w3.org/2000/svg" xmlns:xlink="http://www.w3.org/1999/xlink" xmlns:serif="http://www.serif.com/" viewBox="0 0 100 125" version="1.1" xml:space="preserve" style="" x="0px" y="0px" fill-rule="evenodd" clip-rule="evenodd" stroke-linejoin="round" stroke-miterlimit="2"><path d="M25.202,31.645L25.35,21.757C25.358,21.219 25.666,20.73 26.147,20.489L31.534,17.795L33.012,8.338C33.087,7.853 33.404,7.441 33.85,7.242C34.297,7.044 34.815,7.084 35.224,7.353L43.504,12.768C43.841,12.99 44.072,13.341 44.137,13.739L45.821,23.84L53.067,23.84C53.413,23.84 53.746,23.964 54.008,24.189L57.035,26.795L56.27,27.844C58.724,24.164 62.174,22.246 66.62,22.093C73.335,21.863 79.891,27.502 79.352,35.22C78.994,40.307 76.505,44.001 71.874,46.292L73.073,45.639C73.106,45.624 73.139,45.609 73.173,45.596C73.237,45.57 73.302,45.547 73.367,45.526C73.505,45.482 73.645,45.449 73.787,45.426C73.898,45.409 74.009,45.397 74.121,45.393C74.229,45.388 74.337,45.389 74.445,45.396C74.579,45.405 74.713,45.423 74.844,45.448C74.965,45.472 75.085,45.503 75.203,45.541C75.405,45.606 75.601,45.69 75.787,45.792C75.933,45.872 76.072,45.962 76.205,46.062C76.326,46.153 76.441,46.252 76.549,46.358C76.703,46.509 76.844,46.675 76.968,46.851C77.073,47 77.167,47.156 77.249,47.318C77.273,47.366 77.296,47.415 77.318,47.463C77.976,48.914 78.633,50.364 79.291,51.814C79.353,51.95 79.407,52.091 79.452,52.234C79.505,52.403 79.547,52.576 79.575,52.751C79.61,52.966 79.625,53.184 79.62,53.402C79.614,53.658 79.58,53.913 79.517,54.161C79.473,54.337 79.414,54.51 79.341,54.676C79.256,54.87 79.153,55.056 79.031,55.229C78.938,55.361 78.835,55.486 78.723,55.602C78.605,55.723 78.476,55.834 78.339,55.933C78.188,56.043 78.025,56.137 77.855,56.214C77.773,56.251 77.69,56.284 77.604,56.313C77.491,56.352 77.376,56.383 77.259,56.407C77.142,56.431 77.024,56.448 76.905,56.457C76.754,56.469 76.602,56.469 76.451,56.458C76.309,56.448 76.167,56.428 76.028,56.398C75.793,56.348 75.563,56.272 75.345,56.171C75.175,56.093 75.011,56.001 74.857,55.896C74.719,55.803 74.588,55.699 74.465,55.587C74.359,55.491 74.26,55.389 74.166,55.281C74.079,55.179 73.996,55.072 73.92,54.961C73.844,54.849 73.774,54.732 73.71,54.613C73.671,54.541 73.635,54.467 73.601,54.393L72.71,52.426L73.089,58.625L77.471,60.954C77.759,61.107 77.987,61.353 78.119,61.653L82.212,71.103L83.353,72.895L90.045,73.046C90.333,73.054 90.615,73.147 90.849,73.315L96.424,77.296C96.862,77.609 97.075,78.124 97.02,78.628C97.025,78.675 97.028,78.722 97.028,78.771L97.119,86.21C97.142,86.821 96.877,87.324 96.877,87.324C96.664,87.733 96.353,87.812 95.867,87.931L89.664,89.443C89.585,89.463 89.505,89.476 89.423,89.483L71.572,90.736C71.539,90.738 71.504,90.739 71.471,90.739L35.709,90.739C35.682,90.739 35.652,90.738 35.623,90.736L12.211,89.304C12.176,89.303 12.14,89.299 12.103,89.293L3.982,88.179C3.22,88.074 2.675,87.39 2.742,86.625L3.185,81.617C2.992,81.19 3.015,80.693 3.255,80.286L6.918,74.074C7.126,73.721 7.475,73.473 7.877,73.392L11.878,72.593L16.771,43.515C16.808,43.296 16.896,43.087 17.026,42.908L25.202,31.645ZM94.189,82.447L94.225,85.364L89.1,86.614L71.421,87.857L35.754,87.857L12.443,86.43L5.735,85.509L5.998,82.536L27.199,83.573C27.224,83.574 27.25,83.574 27.274,83.574L75.844,83.416C75.869,83.416 75.891,83.413 75.916,83.413L94.07,82.459C94.11,82.456 94.15,82.452 94.189,82.447ZM11.366,75.636L11.197,76.639C11.13,77.03 11.23,77.434 11.471,77.752C11.714,78.068 12.073,78.27 12.469,78.313L26.324,79.745C26.37,79.749 26.415,79.753 26.461,79.753L71.008,80.106C71.359,80.108 71.682,79.985 71.934,79.778L84.429,78.471C84.927,78.419 85.36,78.114 85.576,77.663C85.795,77.214 85.765,76.684 85.496,76.263L85.215,75.822L89.535,75.919L93.646,78.854L93.169,79.619L75.799,80.532L27.303,80.69L6.95,79.695L9.074,76.094L11.366,75.636ZM46.301,26.722L52.532,26.722L57.433,30.942L58.318,38.725C58.315,38.763 58.314,38.801 58.315,38.839C58.317,38.977 58.338,39.109 58.376,39.235L59.596,49.968C59.601,50.014 59.609,50.06 59.62,50.105L62.907,65.543L58.186,65.137L53.786,60.588C53.608,60.405 53.385,60.272 53.141,60.202L44.368,57.719C43.819,57.563 43.229,57.746 42.865,58.186L37.598,64.547C37.089,65.159 37.175,66.069 37.787,66.577C38.399,67.084 39.309,66.999 39.817,66.386L44.488,60.748L51.983,62.871L56.49,67.528C56.732,67.779 57.056,67.933 57.403,67.962L71.302,69.159L73.533,75.151C73.809,75.896 74.64,76.277 75.387,75.999C76.132,75.721 76.512,74.892 76.235,74.145L73.687,67.297C73.492,66.776 73.015,66.413 72.46,66.365L65.91,65.802L62.453,49.573L61.391,40.234L69.069,40.119L70.261,59.607C70.291,60.107 70.58,60.558 71.023,60.792L75.674,63.263L79.612,72.355C79.642,72.423 79.678,72.49 79.718,72.555L81.813,75.845L70.435,77.035C70.232,77.057 70.044,77.119 69.877,77.213L29.892,76.896L33.76,57.387C33.767,57.353 33.773,57.317 33.777,57.283L35.05,46.925C35.052,46.897 35.055,46.868 35.056,46.841L35.602,38.3C35.609,38.196 35.603,38.09 35.587,37.989L33.77,26.177C33.717,25.837 33.546,25.528 33.287,25.304L29.497,22.037L33.487,20.042C33.906,19.834 34.195,19.436 34.266,18.975L35.516,10.988L41.399,14.836L43.669,28.464L44.621,46.221C44.663,47.016 45.342,47.625 46.139,47.583C46.933,47.54 47.542,46.86 47.5,46.065L46.544,28.23C46.542,28.176 46.536,28.123 46.526,28.071L46.301,26.722ZM28.19,24.716L31.002,27.141L32.714,38.272L32.182,46.614L30.921,56.88L26.957,76.873L26.553,76.869L14.294,75.602L19.558,44.327L27.229,33.76C27.72,33.536 28.066,33.044 28.074,32.469L28.19,24.716ZM74.254,48.269C74.315,48.242 74.373,48.294 74.431,48.332C74.54,48.405 74.63,48.519 74.692,48.654L76.664,53.005C76.726,53.141 76.752,53.283 76.732,53.413C76.724,53.482 76.724,53.56 76.665,53.587C76.605,53.615 76.547,53.562 76.489,53.524C76.379,53.452 76.29,53.338 76.228,53.203L74.257,48.851C74.194,48.717 74.169,48.573 74.187,48.444C74.196,48.375 74.196,48.297 74.254,48.269ZM77.819,41.99C78.814,40.666 80.871,40.377 82.424,41.546L86.241,44.417C87.795,45.583 88.091,47.641 87.096,48.962C86.103,50.286 84.045,50.576 82.489,49.407L78.672,46.538C77.118,45.37 76.822,43.312 77.819,41.99ZM80.121,43.723C80.162,43.669 80.239,43.687 80.308,43.694C80.439,43.704 80.572,43.76 80.691,43.849L84.508,46.72C84.628,46.81 84.719,46.924 84.767,47.047C84.792,47.109 84.83,47.176 84.792,47.23C84.751,47.284 84.674,47.265 84.607,47.259C84.474,47.249 84.341,47.192 84.221,47.103L80.404,44.235C80.285,44.144 80.194,44.031 80.146,43.907C80.121,43.844 80.083,43.777 80.121,43.723ZM72.582,45.921C72.496,45.969 72.409,46.016 72.321,46.062L72.321,46.062L72.325,46.131L72.326,46.13C72.368,46.092 72.41,46.055 72.454,46.02C72.497,45.985 72.542,45.951 72.587,45.919L72.582,45.921ZM70.597,43.708C74.233,41.91 76.195,39.013 76.476,35.017C76.89,29.107 71.862,24.797 66.721,24.972C63.26,25.092 60.578,26.581 58.669,29.445L59.223,28.68L59.742,29.126C60.016,29.363 60.191,29.695 60.233,30.056L61.064,37.355L70.403,37.216C71.173,37.204 71.817,37.801 71.863,38.569L72.123,42.823L70.597,43.708ZM91.439,35.664C91.439,34.009 89.969,32.541 88.024,32.541L83.248,32.541C81.305,32.541 79.833,34.009 79.833,35.664C79.833,37.321 81.305,38.785 83.248,38.785L88.024,38.785C89.969,38.785 91.439,37.321 91.439,35.664ZM88.556,35.664C88.556,35.729 88.485,35.761 88.427,35.798C88.314,35.866 88.174,35.902 88.024,35.902L83.248,35.902C83.098,35.902 82.959,35.866 82.847,35.798C82.789,35.761 82.716,35.729 82.716,35.664C82.716,35.596 82.79,35.565 82.848,35.529C82.96,35.46 83.098,35.424 83.248,35.424L88.024,35.424C88.174,35.424 88.314,35.46 88.427,35.529C88.485,35.565 88.556,35.596 88.556,35.664ZM88.768,23.502C89.491,24.99 88.807,26.953 87.059,27.801L82.76,29.884C81.01,30.73 79.048,30.055 78.324,28.56C77.604,27.071 78.287,25.113 80.036,24.264L84.332,22.181C86.083,21.332 88.048,22.01 88.768,23.502ZM86.174,24.759C86.202,24.818 86.152,24.878 86.115,24.937C86.045,25.047 85.934,25.141 85.799,25.207C85.8,25.207 81.503,27.29 81.503,27.29C81.368,27.354 81.227,27.383 81.094,27.369C81.027,27.362 80.948,27.365 80.919,27.306C80.89,27.248 80.942,27.187 80.979,27.129C81.048,27.017 81.16,26.924 81.296,26.858L85.592,24.775C85.726,24.709 85.869,24.68 85.999,24.695C86.067,24.703 86.145,24.699 86.174,24.757L86.174,24.759ZM79.791,13.595C78.368,12.747 76.358,13.262 75.362,14.932L72.919,19.037C71.925,20.706 72.433,22.721 73.855,23.568C75.279,24.415 77.291,23.901 78.285,22.23L80.727,18.126C81.721,16.456 81.214,14.445 79.792,13.595L79.791,13.595ZM54.534,13.486C53.105,14.323 52.586,16.333 53.567,18.01L55.983,22.13C56.967,23.809 58.976,24.334 60.405,23.495C61.833,22.658 62.353,20.649 61.372,18.97L58.956,14.85C57.973,13.174 55.965,12.647 54.535,13.483L54.534,13.486ZM67.374,10.144C65.719,10.144 64.25,11.614 64.25,13.558L64.25,18.335C64.25,20.277 65.719,21.749 67.374,21.749C69.031,21.749 70.495,20.277 70.495,18.335L70.495,13.558C70.495,11.614 69.031,10.144 67.374,10.144ZM78.316,16.072C78.26,16.039 78.196,16.085 78.136,16.117C78.017,16.177 77.915,16.279 77.838,16.408C77.838,16.408 75.395,20.512 75.395,20.51C75.318,20.638 75.279,20.776 75.281,20.909C75.283,20.979 75.272,21.057 75.329,21.091C75.387,21.124 75.45,21.078 75.51,21.046C75.629,20.986 75.732,20.884 75.808,20.757L78.25,16.653C78.327,16.523 78.368,16.385 78.365,16.254C78.364,16.184 78.372,16.106 78.316,16.072ZM55.992,15.972C55.936,16.005 55.945,16.082 55.944,16.152C55.938,16.284 55.979,16.423 56.056,16.551L58.472,20.671C58.547,20.801 58.649,20.904 58.765,20.966C58.825,20.996 58.888,21.044 58.946,21.011C59.002,20.975 58.993,20.897 58.997,20.829C59,20.696 58.96,20.558 58.884,20.429L56.468,16.309C56.393,16.18 56.293,16.077 56.175,16.017C56.114,15.985 56.049,15.939 55.992,15.972ZM67.374,13.026C67.439,13.026 67.471,13.099 67.507,13.157C67.576,13.269 67.612,13.41 67.612,13.558L67.612,18.335C67.612,18.484 67.576,18.625 67.507,18.737C67.471,18.795 67.439,18.867 67.374,18.867C67.306,18.867 67.275,18.793 67.239,18.735C67.169,18.624 67.134,18.484 67.134,18.335L67.134,13.558C67.134,13.41 67.169,13.269 67.239,13.157C67.275,13.099 67.306,13.026 67.374,13.026Z"/><text x="0" y="115" fill="#000000" font-size="5px" font-weight="bold" font-family="'Helvetica Neue', Helvetica, Arial-Unicode, Arial, Sans-serif">Created by Gruffy Studio</text><text x="0" y="120" fill="#000000" font-size="5px" font-weight="bold" font-family="'Helvetica Neue', Helvetica, Arial-Unicode, Arial, Sans-serif">from the Noun Project</text></svg>