<svg xmlns="http://www.w3.org/2000/svg" data-name="Layer 1" viewBox="0 0 32 40" x="0px" y="0px"><title>holiday</title><path d="M30.88,23.2,25.2,12.638a2.493,2.493,0,0,0-4.39,0l-.424.788L18.2,8.638a2.492,2.492,0,0,0-4.419.06l-2.157,4.728-.424-.788a2.493,2.493,0,0,0-4.39,0L1.12,23.2A1,1,0,0,0,2,24.672H30a1,1,0,0,0,.88-1.474ZM3.674,22.672l4.892-9.085a.493.493,0,0,1,.868,0l4.892,9.085Zm9.11-7.083a.954.954,0,0,0,.126-.174l2.656-5.828A.483.483,0,0,1,16,9.328a.466.466,0,0,1,.405.2l2.685,5.887a1.056,1.056,0,0,0,.12.186L16,21.563Zm4.89,7.083,4.892-9.085a.493.493,0,0,1,.868,0l4.892,9.085ZM7.721,20.408l-.727,1.213a1,1,0,1,1-1.715-1.029l.727-1.213a1,1,0,1,1,1.715,1.029Zm15.064-3.883a1,1,0,0,1,1.39.262l.8,1.167a1,1,0,1,1-1.651,1.128l-.8-1.167A1,1,0,0,1,22.785,16.525Z"/><text x="0" y="47" fill="#000000" font-size="5px" font-weight="bold" font-family="'Helvetica Neue', Helvetica, Arial-Unicode, Arial, Sans-serif">Created by Muhammad Taufik Sidik</text><text x="0" y="52" fill="#000000" font-size="5px" font-weight="bold" font-family="'Helvetica Neue', Helvetica, Arial-Unicode, Arial, Sans-serif">from the Noun Project</text></svg>