<svg width="24" height="24" viewBox="0 0 24 24" fill="none" xmlns="http://www.w3.org/2000/svg">
<path d="M6.90734 2.24932C8.78383 1.485 15.3031 2.54181 17.9544 4.54733C20.6057 6.55285 20.5174 9.24609 19.6778 10.7728C18.5289 12.8619 16.673 14.1572 15.2148 16.0791C12.1658 19.7141 9.69122 22.5135 7.74692 22.5135C6.05234 22.5135 4.56538 18.1264 4.16768 13.4051C3.23973 7.88988 4.03512 3.41922 6.90734 2.24932Z" stroke="#111011"/>
<path d="M7.57027 17.2492C8.32148 17.1238 9.82388 15.3271 9.7355 13.4052C9.58 10.0238 8.05634 6.21874 7.17258 6.21875C6.24462 6.46944 5.84694 10.2298 6.06787 12.0682C6.26269 13.6894 6.81906 17.3745 7.57027 17.2492Z" stroke="#111011"/>
<path d="M14.6841 6.55151C15.6548 6.55151 16.3939 7.28886 16.394 8.14038C16.394 8.992 15.6549 9.72925 14.6841 9.72925C13.7135 9.72903 12.9751 8.99187 12.9751 8.14038C12.9752 7.28898 13.7135 6.55173 14.6841 6.55151Z" stroke="#111011"/>
</svg>
