<svg width="24" height="24" viewBox="0 0 24 24" fill="none" xmlns="http://www.w3.org/2000/svg">
<path fill-rule="evenodd" clip-rule="evenodd" d="M21.1429 7.53136C19.6194 6.70164 18.0949 6.28564 16.5714 6.28564C15.048 6.28564 13.5234 6.70164 12 7.53136V18.8571C13.5234 18.0948 15.048 17.7142 16.5714 17.7142C18.0949 17.7142 19.6194 18.0948 21.1429 18.8571V7.53136Z" stroke="#111011" stroke-linecap="round" stroke-linejoin="round"/>
<path d="M18.9211 8.90043C18.1383 8.681 17.3554 8.57129 16.5714 8.57129C15.7874 8.57129 15.0057 8.681 14.2217 8.90043M18.9211 11.1861C18.1383 10.9667 17.3554 10.857 16.5714 10.857C15.7874 10.857 15.0057 10.9667 14.2217 11.1861M18.9211 13.4719C18.1383 13.2524 17.3554 13.1427 16.5714 13.1427C15.7874 13.1427 15.0057 13.2524 14.2217 13.4719M18.9211 15.7576C18.1383 15.5381 17.3554 15.4284 16.5714 15.4284C15.7874 15.4284 15.0057 15.5381 14.2217 15.7576M9.77829 8.90043C8.99429 8.681 8.21257 8.57129 7.42857 8.57129C6.64457 8.57129 5.86286 8.681 5.07886 8.90043M9.77829 11.1861C8.99429 10.9667 8.21257 10.857 7.42857 10.857C6.64457 10.857 5.86286 10.9667 5.07886 11.1861M9.77829 13.4719C8.99543 13.2524 8.21257 13.1427 7.42857 13.1427C6.64457 13.1427 5.86286 13.2524 5.07886 13.4719M9.77829 15.7576C8.99543 15.5381 8.21257 15.4284 7.42857 15.4284C6.64457 15.4284 5.86286 15.5381 5.07886 15.7576" stroke="#111011" stroke-linecap="round" stroke-linejoin="round"/>
<path fill-rule="evenodd" clip-rule="evenodd" d="M12 7.53136C10.4765 6.70164 8.95197 6.28564 7.42855 6.28564C5.90512 6.28564 4.38055 6.70164 2.85712 7.53136V18.8571C4.38055 18.0948 5.90512 17.7142 7.42855 17.7142C8.95197 17.7142 10.4765 18.0948 12 18.8571V7.53136Z" stroke="#111011" stroke-linecap="round" stroke-linejoin="round"/>
</svg>
