<svg width="24" height="24" viewBox="0 0 24 24" fill="none" xmlns="http://www.w3.org/2000/svg">
<path d="M21 3.04736L19.7812 3.98486L16.3125 6.70361L12.117 6.00011L11.8358 5.95286L11.5793 6.11786L7.31325 8.95286L3.891 8.27336L3 8.08511V21.0001H21V3.04736ZM19.5 6.11711V10.1484L16.335 12.6571L12.234 11.2974L11.883 11.1804L11.5785 11.3679L7.40625 14.1579L4.5 12.9826V9.91511L7.35975 10.4776L7.66425 10.5466L7.92075 10.3831L12.1635 7.54811L16.3815 8.25011L16.7092 8.29736L16.968 8.08586L19.5 6.11711ZM19.5 12.0706V19.5001H4.5V14.6251L7.21875 15.7036L7.59375 15.8439L7.92225 15.6339L12.1403 12.8214L16.2653 14.2036L16.6403 14.3439L16.9688 14.0859L19.5 12.0706Z" fill="#111011"/>
</svg>
