<svg width="24" height="24" viewBox="0 0 24 24" fill="none" xmlns="http://www.w3.org/2000/svg">
<g clip-path="url(#clip0_2165_2187)">
<path d="M11.6265 0.762774C11.1615 0.724524 10.7385 0.765775 10.299 0.974275C10.0962 1.06092 9.90802 1.1783 9.741 1.32227L9.52275 1.48727L9.513 1.53377L8.7795 2.30852L4.5225 6.74327L4.521 6.74477C4.42246 6.84792 4.33591 6.9619 4.263 7.08452L4.15275 7.20002L2.89275 10.0245L2.7105 10.4333L1.4805 12.708C1.46741 12.7315 1.4554 12.7555 1.4445 12.78C1.2945 13.0635 1.1985 13.3605 1.1445 13.665L1.14225 13.6793L0.734253 16.6493L1.12575 17.8253C1.43247 18.751 1.95215 19.5925 2.643 20.2808L3.3405 20.9783C3.81594 21.4571 4.36677 21.8547 4.971 22.155L5.9925 22.662L5.99475 22.6635C6.86918 23.1029 7.83465 23.3305 8.81325 23.328H8.81475L11.25 23.322V23.328H17.7945C18.462 23.3168 19.233 22.977 19.686 22.4603C19.8457 22.3149 19.9907 22.1541 20.1188 21.9803L20.1765 21.9023L22.665 19.0688C22.9047 18.7967 23.0794 18.4737 23.1761 18.1242C23.2728 17.7747 23.2888 17.4079 23.223 17.0513L23.1353 16.581C23.1252 16.4399 23.1059 16.2996 23.0775 16.161V16.1573L22.7648 14.571L22.7693 14.565L22.0733 11.064C21.9223 10.279 21.4884 9.57608 20.8538 9.09002L18.1313 6.66977L16.3988 3.46502L16.3853 3.44402C16.0695 2.94002 15.7853 2.52602 15.3998 2.20277C15.0053 1.87127 14.556 1.67552 13.9898 1.49027L13.0545 1.16027L12.672 1.02602L12.6668 1.02452C12.5698 0.985905 12.4715 0.950881 12.372 0.919524C12.1344 0.843978 11.89 0.791978 11.6423 0.764275L11.6348 0.763525L11.6265 0.762774ZM17.775 21.828H12.75V19.4453L19.6463 18.357L21.6713 16.9103L21.747 17.3198V17.3213C21.7965 17.5958 21.7215 17.871 21.54 18.0765L19.008 20.9595L18.912 21.0893L18.9105 21.0908C18.8355 21.1935 18.7493 21.2865 18.6555 21.3698L18.6203 21.4013L18.5618 21.468L18.5595 21.4695C18.399 21.6548 18.036 21.822 17.775 21.828ZM8.6325 15.4605L12 18.828L3.75 16.578L4.3425 14.2305C4.44 13.8105 4.7025 13.458 5.07 13.233L8.25 11.328V14.538C8.25 14.883 8.385 15.213 8.6325 15.4605ZM8.25 11.328L6.29625 7.06052L9.864 3.34577L9.915 3.29177L8.25 11.328ZM13.635 15.408C13.14 15.183 12.885 14.6205 13.0425 14.0955L14.67 8.67452L20.529 11.0865C20.559 11.172 20.5838 11.2605 20.601 11.3513V11.3528L21.1658 14.1953L21.1628 14.1998L21.534 16.086L19.3538 17.643L18.7598 17.7375L13.635 15.408ZM14.8875 7.95302L15 7.57802L15.519 4.99202L16.938 7.61552L19.413 9.81602L14.8875 7.95302ZM2.54025 17.328H3.65025L11.25 19.4003V21.822L8.8125 21.828H8.811C8.06705 21.8302 7.33303 21.6572 6.66825 21.3233L5.63625 20.811L5.634 20.8103C5.17665 20.5824 4.75985 20.2808 4.40025 19.9178L3.70275 19.2203C3.17846 18.6968 2.78372 18.0581 2.55 17.355L2.54025 17.328ZM12.135 2.42777L12.5588 2.57627C12.804 2.66177 13.1385 2.78027 13.4978 2.90702L13.5068 2.91002L13.5158 2.91302C14.0243 3.07952 14.259 3.20252 14.436 3.35102C14.5898 3.48002 14.736 3.65852 14.9558 3.99227L14.2725 7.39502L12.3248 13.8788C12.1965 14.306 12.2271 14.7652 12.411 15.1716C12.5949 15.578 12.9196 15.9041 13.3253 16.0898L16.4978 17.5313L12.273 18.039L9.1635 14.9295C9.11172 14.8782 9.07066 14.8171 9.04272 14.7497C9.01478 14.6824 9.00052 14.6102 9.00075 14.5373V11.4038L10.8735 2.36477C10.9478 2.32352 11.0085 2.29877 11.0633 2.28227C11.1608 2.25377 11.2853 2.23952 11.496 2.25602C11.6438 2.27252 11.7983 2.31152 11.925 2.35052C11.9865 2.3699 12.0473 2.39141 12.1073 2.41502L12.114 2.41802L12.135 2.42777ZM2.805 13.4175L2.81775 13.3943V13.3928L4.05525 11.1045L5.3805 8.13002C5.40383 8.07345 5.43654 8.02121 5.47725 7.97552L5.7525 7.67477L7.2885 11.0295L4.6845 12.5895L4.6785 12.5933C4.41303 12.7537 4.18215 12.9654 3.99931 13.216C3.81646 13.4666 3.68531 13.751 3.6135 14.0528L3.16575 15.828H2.36025L2.62275 13.9125C2.65176 13.7485 2.70831 13.5905 2.79 13.4453L2.79375 13.4385L2.805 13.4175Z" fill="#111011"/>
</g>
<defs>
<clipPath id="clip0_2165_2187">
<rect width="24" height="24" fill="white"/>
</clipPath>
</defs>
</svg>
