<svg width="24" height="24" viewBox="0 0 24 24" fill="none" xmlns="http://www.w3.org/2000/svg">
<path d="M11.8078 1.14893C11.6625 1.14893 11.5125 1.15361 11.3672 1.16158C10.1812 1.23752 8.84529 1.80564 8.36717 3.14064C6.55779 8.23127 5.21717 13.3922 4.76717 18.586C4.67107 19.6781 4.90779 20.7047 5.47029 21.4969C6.03279 22.2891 6.95623 22.8141 8.00623 22.8469C8.95779 22.875 10.0406 22.7438 11.0015 22.5C11.2453 22.4344 11.4844 22.3641 11.7094 22.2844C11.2359 21.9938 10.9219 21.4735 10.9219 20.8875C10.9219 20.8453 10.9219 20.8078 10.9265 20.7656C10.8187 20.7985 10.7015 20.836 10.5844 20.8641C9.78748 21.0656 8.80779 21.1781 8.05311 21.1594C7.49998 21.1453 7.12967 20.925 6.84373 20.5172C6.55311 20.1141 6.37967 19.4953 6.44529 18.736C6.88592 13.7297 8.17967 8.70939 9.96092 3.70643C10.1531 3.1608 10.6922 2.89502 11.475 2.84486C11.5687 2.83877 11.6719 2.8383 11.7703 2.84486C12.464 2.87486 13.1719 3.14205 13.3734 3.32768C15.2812 5.09064 16.8984 7.41565 17.5265 9.52971C17.5172 9.57189 17.5078 9.60471 17.4844 9.67502C17.4094 9.89064 17.2781 10.2094 17.1047 10.5985C17.0203 10.7813 16.9265 10.9875 16.8281 11.1985L18.3094 12.0141C18.4312 11.761 18.5484 11.5125 18.6469 11.2875C18.8297 10.875 18.975 10.5235 19.0781 10.2281C19.1297 10.0828 19.1719 9.95158 19.2 9.81096C19.2328 9.67502 19.2984 9.56252 19.2 9.22033C18.4781 6.61877 16.6594 4.05939 14.5172 2.08408C13.814 1.43955 12.8344 1.1583 11.8078 1.14893ZM17.55 9.43127C17.55 9.43596 17.5547 9.44065 17.55 9.45002C17.55 9.45002 17.5453 9.46877 17.5453 9.47814C17.5453 9.45471 17.5453 9.43127 17.55 9.43127ZM15.9469 11.6719L15.389 12.7172L17.9765 14.1656C18.0703 14.2219 18.1312 14.2172 18.2484 14.161C18.3609 14.1094 18.4969 13.9781 18.5812 13.8188C18.6656 13.6641 18.6984 13.4906 18.6703 13.3641C18.6469 13.2328 18.5953 13.1297 18.3984 13.0219H18.3937L15.9469 11.6719ZM15.5437 13.7719C15.3047 14.236 15.0562 14.7094 14.7984 15.1922L16.2422 16.0735C16.5094 15.5719 16.7672 15.0797 17.0156 14.5969L15.5437 13.7719ZM14.3953 15.9375C14.1187 16.4531 13.8375 16.9594 13.5609 17.461L15 18.3375C15.2812 17.836 15.5625 17.3297 15.839 16.8188L14.3953 15.9375ZM13.1484 18.1969C12.9375 18.5625 12.7359 18.9094 12.5437 19.2469H12.5625C13.1765 19.2469 13.7156 19.5938 13.9969 20.0953C14.189 19.7672 14.3859 19.425 14.5875 19.0735L13.1484 18.1969ZM12.5625 20.0906C12.1172 20.0906 11.7656 20.4422 11.7656 20.8875C11.7656 21.3328 12.1172 21.6844 12.5625 21.6844C13.0078 21.6844 13.3594 21.3328 13.3594 20.8875C13.3594 20.4422 13.0078 20.0906 12.5625 20.0906Z" fill="#111011"/>
</svg>
