<svg width="24" height="24" viewBox="0 0 24 24" fill="none" xmlns="http://www.w3.org/2000/svg">
<g clip-path="url(#clip0_71_1856)">
<path fill-rule="evenodd" clip-rule="evenodd" d="M13.4585 0.272705H15.996C17.2996 0.272705 18.3371 0.272705 19.1683 0.351251C20.0203 0.433069 20.7414 0.60216 21.3829 0.995978C22.0437 1.40113 22.5993 1.95703 23.004 2.61816C23.3967 3.25961 23.5669 3.98071 23.6476 4.83271C23.7272 5.66398 23.7272 6.70143 23.7272 8.00507V8.89416C23.7272 9.82143 23.7272 10.56 23.6858 11.1589C23.6443 11.7709 23.5571 12.2967 23.3531 12.7887C23.1065 13.3844 22.745 13.9257 22.2892 14.3816C21.8334 14.8376 21.2923 15.1993 20.6967 15.4462C20.2822 15.6174 19.8425 15.7069 19.3429 15.756C19.3363 15.9087 19.3298 16.0527 19.3211 16.1902C19.2763 16.8403 19.1836 17.3945 18.9687 17.9116C18.4428 19.1809 17.4343 20.1893 16.1651 20.7153C15.5138 20.9858 14.796 21.0643 13.8927 21.0938C13.4062 21.1091 13.0963 21.12 12.8596 21.1483C12.6371 21.1756 12.5531 21.2116 12.5072 21.2389C12.4571 21.2683 12.3872 21.3229 12.2672 21.4898C12.1363 21.6698 11.988 21.9185 11.7545 22.3145L11.4709 22.7923C10.7323 24.0403 8.90398 24.0403 8.16543 22.7923L7.8818 22.3145C7.64834 21.9185 7.49998 21.6698 7.36907 21.4898C7.24907 21.3229 7.17925 21.2683 7.12907 21.2389C7.08325 21.2116 6.99925 21.1756 6.7767 21.1483C6.4332 21.1165 6.08856 21.0983 5.74361 21.0938C4.84034 21.0643 4.12252 20.9847 3.47125 20.7153C2.20198 20.1893 1.19353 19.1809 0.667614 17.9116C0.452705 17.3945 0.359978 16.8403 0.316341 16.1902C0.272705 15.5531 0.272705 14.7676 0.272705 13.776V12.8313C0.272705 11.4393 0.272705 10.3352 0.356705 9.45161C0.442887 8.54616 0.622887 7.78689 1.03634 7.11161C1.46345 6.41406 2.04961 5.82753 2.74689 5.39998C3.42216 4.98543 4.18143 4.80652 5.08689 4.72034C5.31598 4.69852 5.56143 4.68216 5.82325 4.67016C5.91052 3.88471 6.08507 3.21489 6.45052 2.61707C6.85568 1.95621 7.41157 1.40069 8.0727 0.995978C8.71416 0.603251 9.43525 0.433069 10.2873 0.352341C11.1185 0.272705 12.156 0.272705 13.4585 0.272705ZM7.47489 4.63743L8.46543 4.63634H11.1687C12.5607 4.63634 13.6647 4.63634 14.5483 4.72034C15.4538 4.80652 16.2131 4.98652 16.8883 5.39998C17.5855 5.82722 18.1716 6.41337 18.5989 7.11052C19.0134 7.7858 19.1923 8.54507 19.2785 9.45052C19.3625 10.3342 19.3625 11.4382 19.3625 12.8302V14.1054C19.6048 14.0798 19.8426 14.0218 20.0694 13.9331C20.4666 13.7686 20.8275 13.5275 21.1315 13.2235C21.4355 12.9195 21.6766 12.5586 21.8411 12.1614C21.948 11.9018 22.0156 11.5756 22.0527 11.0465C22.0898 10.5098 22.0898 9.82798 22.0898 8.86361V8.04543C22.0898 6.69052 22.0898 5.73271 22.0178 4.98652C21.948 4.25452 21.8171 3.8138 21.6076 3.47234C21.3378 3.0322 20.9678 2.66212 20.5276 2.39234C20.1851 2.1818 19.7443 2.05089 19.0112 1.98107C18.2673 1.91016 17.3083 1.90907 15.9534 1.90907H13.4989C12.144 1.90907 11.1851 1.90907 10.44 1.98107C9.70798 2.05089 9.26725 2.1818 8.9247 2.39125C8.48456 2.66103 8.11449 3.03111 7.8447 3.47125C7.67016 3.75816 7.55016 4.10834 7.47489 4.63743ZM5.2407 6.35125C4.45525 6.42543 3.97525 6.56725 3.60107 6.79634C3.12399 7.08869 2.72287 7.48981 2.43052 7.96689C2.20143 8.34107 2.05961 8.82107 1.98434 9.60652C1.90798 10.4029 1.90798 11.4294 1.90798 12.8738V13.7465C1.90798 14.7742 1.90798 15.504 1.94725 16.0789C1.98652 16.6462 2.05961 17.0007 2.17743 17.2854C2.35573 17.7157 2.61707 18.1067 2.94651 18.4359C3.27595 18.7652 3.66704 19.0263 4.09743 19.2043C4.4607 19.3549 4.93089 19.4302 5.79489 19.4574L5.8287 19.4585C6.27161 19.4727 6.65561 19.4858 6.97416 19.524C7.31234 19.5654 7.64507 19.644 7.96034 19.8294C8.27125 20.0149 8.49598 20.2582 8.69125 20.5276C8.87343 20.7785 9.05998 21.0938 9.2727 21.4516L9.5727 21.9589C9.59774 22.001 9.63364 22.0355 9.67664 22.0589C9.71963 22.0824 9.76814 22.0938 9.81707 22.092C9.866 22.0938 9.9145 22.0824 9.9575 22.0589C10.0005 22.0355 10.0364 22.001 10.0614 21.9589L10.3614 21.4516C10.5731 21.0938 10.7607 20.7774 10.9418 20.5276C11.1339 20.2463 11.3829 20.0084 11.6727 19.8294C11.9891 19.644 12.3218 19.5654 12.6611 19.524C13.0414 19.4862 13.4232 19.4644 13.8054 19.4585H13.8382C14.7032 19.4302 15.1723 19.3549 15.5378 19.2043C15.9681 19.026 16.359 18.7647 16.6883 18.4353C17.0175 18.1058 17.2786 17.7147 17.4567 17.2843C17.5745 17.0007 17.6476 16.6451 17.6858 16.0789C17.7262 15.504 17.7262 14.7742 17.7262 13.7465V12.8738C17.7262 11.4294 17.7262 10.404 17.6498 9.60652C17.5745 8.82107 17.4327 8.34107 17.2036 7.96689C16.9113 7.48981 16.5101 7.08869 16.0331 6.79634C15.6589 6.56725 15.1789 6.42543 14.3934 6.35016C13.5971 6.2738 12.5705 6.2738 11.1262 6.2738H8.50907C7.0647 6.2738 6.03925 6.2738 5.2418 6.35016" fill="#111011"/>
<path d="M7.09088 13.0909C7.09088 13.3802 6.97594 13.6577 6.77136 13.8623C6.56677 14.0669 6.28929 14.1818 5.99997 14.1818C5.71064 14.1818 5.43316 14.0669 5.22858 13.8623C5.02399 13.6577 4.90906 13.3802 4.90906 13.0909C4.90906 12.8016 5.02399 12.5241 5.22858 12.3195C5.43316 12.1149 5.71064 12 5.99997 12C6.28929 12 6.56677 12.1149 6.77136 12.3195C6.97594 12.5241 7.09088 12.8016 7.09088 13.0909ZM10.9091 13.0909C10.9091 13.3802 10.7941 13.6577 10.5895 13.8623C10.385 14.0669 10.1075 14.1818 9.81815 14.1818C9.52882 14.1818 9.25134 14.0669 9.04676 13.8623C8.84217 13.6577 8.72724 13.3802 8.72724 13.0909C8.72724 12.8016 8.84217 12.5241 9.04676 12.3195C9.25134 12.1149 9.52882 12 9.81815 12C10.1075 12 10.385 12.1149 10.5895 12.3195C10.7941 12.5241 10.9091 12.8016 10.9091 13.0909ZM14.7272 13.0909C14.7272 13.3802 14.6123 13.6577 14.4077 13.8623C14.2031 14.0669 13.9257 14.1818 13.6363 14.1818C13.347 14.1818 13.0695 14.0669 12.8649 13.8623C12.6604 13.6577 12.5454 13.3802 12.5454 13.0909C12.5454 12.8016 12.6604 12.5241 12.8649 12.3195C13.0695 12.1149 13.347 12 13.6363 12C13.9257 12 14.2031 12.1149 14.4077 12.3195C14.6123 12.5241 14.7272 12.8016 14.7272 13.0909Z" fill="#111011"/>
</g>
<defs>
<clipPath id="clip0_71_1856">
<rect width="24" height="24" fill="white"/>
</clipPath>
</defs>
</svg>
