<svg width="24" height="24" viewBox="0 0 24 24" fill="none" xmlns="http://www.w3.org/2000/svg">
<path d="M13.923 2.78488C13.4091 2.28221 12.7189 2.00073 12 2.00073C11.2811 2.00073 10.5909 2.28221 10.077 2.78488L2.977 9.72888C2.66769 10.0315 2.42195 10.3929 2.25418 10.7918C2.0864 11.1907 1.99999 11.6191 2 12.0519V18.7499C2 19.3466 2.23705 19.9189 2.65901 20.3409C3.08097 20.7628 3.65326 20.9999 4.25 20.9999H19.75C20.3467 20.9999 20.919 20.7628 21.341 20.3409C21.7629 19.9189 22 19.3466 22 18.7499V12.0519C22 11.6191 21.9136 11.1907 21.7458 10.7918C21.5781 10.3929 21.3323 10.0315 21.023 9.72888L13.923 2.78488ZM18.643 19.4999L18.546 19.4879L18.146 19.4359C17.6656 19.3717 17.1859 19.302 16.707 19.2269C15.2437 19.0006 13.7897 18.7184 12.348 18.3809C10.758 18.0009 9.215 17.5339 8.085 16.9859C7.518 16.7109 7.096 16.4359 6.826 16.1709C6.558 15.9089 6.5 15.7209 6.5 15.6009C6.5 15.2879 6.7 14.9529 7.52 14.6139C8.32 14.2839 9.433 14.0749 10.658 13.8839L11.353 13.7789C12.328 13.6329 13.327 13.4829 14.143 13.2709C14.651 13.1379 15.145 12.9689 15.546 12.7299C15.946 12.4899 16.341 12.1279 16.478 11.5819C16.621 11.0079 16.441 10.4959 16.163 10.0909C15.896 9.70088 15.506 9.35988 15.103 9.06088C14.59 8.67888 13.93 8.28088 13.292 7.89588C12.969 7.70352 12.6487 7.50684 12.331 7.30588C11.381 6.70088 10.701 6.15588 10.42 5.63888C10.297 5.41088 10.267 5.21688 10.307 5.02188C10.351 4.81188 10.496 4.51488 10.88 4.12988C10.9226 4.08693 10.9602 4.0393 10.992 3.98788L11.126 3.85688C11.3596 3.62845 11.6733 3.50054 12 3.50054C12.3267 3.50054 12.6404 3.62845 12.874 3.85688L19.974 10.8009C20.31 11.1309 20.5 11.5809 20.5 12.0519V18.7499C20.5 18.9488 20.421 19.1396 20.2803 19.2802C20.1397 19.4209 19.9489 19.4999 19.75 19.4999H18.643ZM8.939 5.99588C8.98433 6.11855 9.03833 6.23755 9.101 6.35288C9.59 7.25488 10.599 7.98088 11.524 8.57088C11.901 8.81088 12.267 9.03088 12.617 9.24188C13.206 9.59588 13.747 9.92188 14.209 10.2649C14.565 10.5289 14.799 10.7529 14.926 10.9389C15.044 11.1109 15.031 11.1849 15.022 11.2189C15.021 11.2249 14.999 11.3089 14.777 11.4419C14.557 11.5739 14.22 11.6995 13.766 11.8189C13.034 12.0089 12.139 12.1439 11.172 12.2889C10.9273 12.3255 10.679 12.3635 10.427 12.4029C9.221 12.5899 7.937 12.8189 6.949 13.2269C5.98 13.6279 5 14.3309 5 15.5999C5 16.2699 5.344 16.8199 5.778 17.2439C6.211 17.6669 6.793 18.0259 7.43 18.3359C8.361 18.7869 9.5 19.1739 10.676 19.4999H4.25C4.05109 19.4999 3.86032 19.4209 3.71967 19.2802C3.57902 19.1396 3.5 18.9488 3.5 18.7499V12.0519C3.5 11.5819 3.69 11.1299 4.026 10.8009L8.939 5.99588Z" fill="#111011"/>
</svg>
